<?xml version="1.0" encoding="utf-8"?>
<!-- Generator: Adobe Illustrator 17.1.0, SVG Export Plug-In . SVG Version: 6.00 Build 0)  -->
<!DOCTYPE svg PUBLIC "-//W3C//DTD SVG 1.0//EN" "http://www.w3.org/TR/2001/REC-SVG-20010904/DTD/svg10.dtd">
<svg version="1.0" id="Layer_1" xmlns="http://www.w3.org/2000/svg" xmlns:xlink="http://www.w3.org/1999/xlink" x="0px" y="0px"
	 viewBox="165.1 153.1 330.4 306.8" enable-background="new 165.1 153.1 330.4 306.8" xml:space="preserve">
<g>
	<g>
		<g>
			<path fill="#065A2E" d="M266.1,269.3c-0.7,2.6-2.1,4.9-5.9,4.9c-2.1,0-3.6-0.8-4.4-1.9c-1-1.4-1.7-3-1.7-11.3s0.7-10,1.7-11.3
				c0.8-1.1,2.4-1.9,4.4-1.9c3.7,0,5.2,2.3,5.9,4.9h11.5c-1.7-10.1-8.7-14.9-17.4-14.9c-5.3,0-9.4,1.8-12.8,5.2
				c-4.8,4.8-4.6,11.3-4.6,18.2c0,6.9-0.2,13.3,4.6,18.2c3.4,3.4,7.4,5.2,12.8,5.2c8.7,0,15.7-4.8,17.4-14.9h-11.5V269.3z"/>
			<path fill="#065A2E" d="M306,284.3c5.6,0,9.5-1.8,12.8-5.2c4.8-4.8,4.6-11.3,4.6-18.2c0-6.9,0.2-13.3-4.6-18.2
				c-3.4-3.4-7.2-5.2-12.8-5.2c-5.6,0-9.5,1.8-12.8,5.2c-4.8,4.8-4.6,11.3-4.6,18.2s-0.2,13.3,4.6,18.2
				C296.5,282.5,300.4,284.3,306,284.3z M301.5,249.5c0.8-1.1,2.4-2,4.5-2c2.1,0,3.7,0.9,4.5,2c1,1.4,1.7,2.9,1.7,11.3
				c0,8.4-0.6,9.9-1.7,11.2c-0.8,1.1-2.5,2.1-4.5,2.1c-2.1,0-3.7-1-4.5-2.1c-1-1.4-1.7-2.8-1.7-11.2
				C299.8,252.5,300.4,250.9,301.5,249.5z"/>
			<path fill="#065A2E" d="M372,260.9c0-7.2,0.6-13.1-4.8-18.4c-3.2-3.2-7.6-4.5-12.4-4.5h-17v46h17c4.8,0,9.2-1.4,12.4-4.5
				C372.6,274,372,268.1,372,260.9z M359.5,271.2c-1,1.5-2.6,2.6-5.4,2.6h-5v-25.9h5c2.8,0,4.4,1,5.4,2.6c0.9,1.3,1.2,2.6,1.2,10.3
				C360.7,268.7,360.4,269.9,359.5,271.2z"/>
			<polygon fill="#065A2E" points="417.5,247.9 417.5,237.9 386.3,237.9 386.3,283.9 417.5,283.9 417.5,273.8 397.6,273.8 
				397.6,265.7 414.6,265.7 414.6,255.7 397.6,255.7 397.6,247.9 			"/>
		</g>
		<g>
			<path fill="#065A2E" d="M253.8,322c-3.6,0-6,1.1-8.1,3.3c-3.1,3.1-2.9,7.2-2.9,11.5c0,4.4-0.1,8.5,2.9,11.5
				c2.1,2.1,4.6,3.3,8.1,3.3s6-1.1,8.1-3.3c3.1-3.1,2.9-7.2,2.9-11.5c0-4.4,0.1-8.5-2.9-11.5C259.9,323.1,257.4,322,253.8,322z
				 M256.7,343.9c-0.5,0.7-1.6,1.3-2.9,1.3c-1.3,0-2.3-0.6-2.9-1.3c-0.7-0.9-1.1-1.8-1.1-7.1c0-5.3,0.4-6.3,1.1-7.2
				c0.5-0.7,1.5-1.3,2.9-1.3c1.3,0,2.3,0.6,2.9,1.3c0.7,0.9,1.1,1.8,1.1,7.2C257.8,342.1,257.4,343,256.7,343.9z"/>
			<path fill="#065A2E" d="M295.5,331.6c0-4.8-3.5-9.4-9.9-9.4h-11.5v29.2h7.2v-10.8h2.4l5.2,10.8h8.3l-6.3-12.1
				C293.1,338.1,295.5,335.6,295.5,331.6z M285.1,334.5h-4v-5.9h4c2,0,3.1,1.4,3.1,2.9C288.2,333,287.1,334.5,285.1,334.5z"/>
			<polygon fill="#065A2E" points="304.8,351.4 324.6,351.4 324.6,345 311.9,345 311.9,339.9 322.7,339.9 322.7,333.5 311.9,333.5 
				311.9,328.6 324.6,328.6 324.6,322.2 304.8,322.2 			"/>
			<path fill="#065A2E" d="M343.9,340.6h4.3v0.4c0,1.1-0.3,2.3-1.1,3.1c-0.7,0.7-1.7,1.2-3.2,1.2c-1.3,0-2.3-0.5-2.8-1.2
				c-0.7-0.9-1.1-1.9-1.1-7.2s0.4-6.3,1.1-7.2c0.5-0.7,1.5-1.3,2.8-1.3c2.5,0,3.6,1.1,4.2,3.3h7.2c-0.7-4.8-3.9-9.6-11.4-9.6
				c-3.5,0-6,1.1-8.1,3.3c-3.1,3.1-2.9,7.2-2.9,11.5c0,4.4-0.1,8.5,2.9,11.5c2.1,2.1,4.7,3.3,8.1,3.3c3.2,0,6-0.7,8.5-3.3
				c2.2-2.2,2.9-5,2.9-9.7v-4h-11.4V340.6z"/>
			<path fill="#065A2E" d="M374.6,322c-3.6,0-6,1.1-8.1,3.3c-3.1,3.1-2.9,7.2-2.9,11.5c0,4.4-0.1,8.5,2.9,11.5
				c2.1,2.1,4.6,3.3,8.1,3.3c3.6,0,6-1.1,8.1-3.3c3.1-3.1,2.9-7.2,2.9-11.5c0-4.4,0.1-8.5-2.9-11.5C380.6,323.1,378.1,322,374.6,322
				z M377.4,343.9c-0.5,0.7-1.6,1.3-2.9,1.3s-2.3-0.6-2.9-1.3c-0.7-0.9-1.1-1.8-1.1-7.1c0-5.3,0.4-6.3,1.1-7.2
				c0.5-0.7,1.5-1.3,2.9-1.3s2.3,0.6,2.9,1.3c0.7,0.9,1.1,1.8,1.1,7.2C378.5,342.1,378.1,343,377.4,343.9z"/>
			<polygon fill="#065A2E" points="410.4,336.9 401,322.2 394.8,322.2 394.8,351.4 401.9,351.4 401.9,336.7 411.3,351.4 
				417.5,351.4 417.5,322.2 410.4,322.2 			"/>
		</g>
		<g>
			<path fill="#065A2E" d="M313.3,304.7c0,1-0.8,1.8-1.8,1.8h-3.8c-1,0-1.8-0.8-1.8-1.8v-3.6c0-1,0.8-1.8,1.8-1.8h3.8
				c1,0,1.8,0.8,1.8,1.8V304.7z"/>
			<path fill="#065A2E" d="M293,304.7c0,1-0.8,1.8-1.8,1.8h-3.8c-1,0-1.8-0.8-1.8-1.8v-3.6c0-1,0.8-1.8,1.8-1.8h3.8
				c1,0,1.8,0.8,1.8,1.8V304.7z"/>
			<path fill="#065A2E" d="M333.7,304.7c0,1-0.8,1.8-1.8,1.8h-3.8c-1,0-1.8-0.8-1.8-1.8v-3.6c0-1,0.8-1.8,1.8-1.8h3.8
				c1,0,1.8,0.8,1.8,1.8V304.7z"/>
			<path fill="#065A2E" d="M354.2,304.7c0,1-0.8,1.8-1.8,1.8h-3.8c-1,0-1.8-0.8-1.8-1.8v-3.6c0-1,0.8-1.8,1.8-1.8h3.8
				c1,0,1.8,0.8,1.8,1.8V304.7z"/>
			<path fill="#065A2E" d="M374.5,304.7c0,1-0.8,1.8-1.8,1.8h-3.8c-1,0-1.8-0.8-1.8-1.8v-3.6c0-1,0.8-1.8,1.8-1.8h3.8
				c1,0,1.8,0.8,1.8,1.8V304.7z"/>
		</g>
	</g>
	<path fill="#62BC72" d="M493.5,185.5l-18-20.5c-1.6-1.8-3.9-2.8-6.3-2.7l-73.4,2.8c-0.7,0-1.4,0.1-2,0.3l-85.4,26l-16.8-7.3
		c-1.1-0.5-2.3-0.7-3.6-0.7l-36.2,1.6l-6.9-21.3c-0.9-2.9-3.4-5-6.5-5.4l-35.9-5.1c-2.5-0.3-4.9,0.4-6.6,2.1
		c-1.8,1.7-2.7,4.1-2.4,6.5l3.2,34.7c-1.9,1.3-3.3,3.3-3.6,5.6l-4.7,34.9c-0.2,1.4,0,2.9,0.6,4.2l1.4,3.2l-2.1,2.6
		c-0.9,1.1-1.5,2.5-1.7,4l-8.6,63.4c-0.2,1.1-0.1,2.3,0.3,3.4l0.7,2.2l-3.5,0.8c-3.2,0.7-5.6,3.3-6.1,6.6l-4.2,27.5
		c-0.2,1.5,0,3,0.6,4.4l4.2,10.2l-2.4,13.3c-0.2,1.4-0.1,2.8,0.3,4.1l6.5,18.4c1.1,3.2,4.1,5.3,7.5,5.3h113v-15.9H187.5l-3.9-11.2
		l2.4-13.6c0.3-1.6,0.1-3.2-0.5-4.6l-4.5-10.3l3-19.8l6.5-1.5c2.1-0.5,4-1.9,5.1-3.8c1.1-1.9,1.4-4.2,0.7-6.3l-2.6-8.7l8.1-59.5
		l3.8-4.6c1.9-2.3,2.3-5.4,1.1-8.2l-2.4-5.6l3.2-23.5c0.8-0.2,1.5-0.6,2.3-1c2.5-1.6,3.8-4.5,3.6-7.4l-3.2-34.6l20.9,3l7.2,22.3
		c1.1,3.4,4.3,5.6,7.9,5.5l40.4-1.8l17.8,7.9c1.8,0.8,3.7,0.9,5.6,0.3l87.4-26.7l68.4-2.7l12.5,14.5l-24.6,82.5
		c-0.6,2.1-0.3,4.5,0.8,6.4c1.1,1.9,3,3.3,5.2,3.7l5.8,1.2l-2.8,10.4c-0.2,0.8-0.3,1.6-0.3,2.4l4.1,95.4H365.4v15.9h109.9
		c2.2,0,4.3-0.9,5.8-2.5s2.3-3.7,2.2-5.9l-4.4-102.5l4.7-17.5c0.6-2.1,0.2-4.4-0.9-6.2c-1.2-1.9-3-3.2-5.2-3.6l-5.6-1.1l23.3-78.4
		C495.9,190.4,495.3,187.6,493.5,185.5z"/>
	<path fill="#62BC72" d="M305.2,384.9c-1.6,0.9-2.9,3.2-2.9,5v24.3c0,1.8,1.3,4.1,2.9,5l22,12.4c0.8,0.5,1.9,0.7,2.9,0.7
		c1.1,0,2.1-0.2,2.9-0.7l21.9-12.4c1.6-0.9,2.9-3.2,2.9-5v-24.3c0-1.8-1.3-4.1-2.9-5c0,0-1.6-0.9-3.6-2c-0.4-0.2-0.9-0.3-1.3-0.3
		c-1.9,0-4.3,1.7-5.8,4.4l-3.5,6.1c-1.3,2.5-1.1,5.6,0.5,7.9l0.1,0.1c1.6,2.3,3.8,4.5,4.5,5.3c0.4,0.5,0.7,1,0.9,1.6
		c0.6,2.1-0.6,4.3-2.8,4.9c-0.4,0.1-0.7,0.1-1.1,0.1c-1.7,0-3.3-1.2-3.8-2.9c-0.1-0.5-0.2-1.1-0.1-1.6c0.1-0.9-0.2-2.3-1.4-3.7
		c-0.2-0.3-0.5-0.4-0.8-0.4c-1.3,0-3.1,2.2-3.8,4.4v0.1c-0.8,2.7-1.4,5.1-1.2,5.3c0.1,0.1,0.2,0.3,0.3,0.4c1.2,2.2,0.3,4.9-1.9,6.1
		c-0.7,0.4-1.4,0.5-2.1,0.5c-1.6,0-3.2-0.9-4-2.4c-1.2-2.2-0.3-4.9,1.9-6.1c0.1-0.1,0.2-0.1,0.3-0.1c0.2-0.1,0.6-1.2,1.1-2.6
		c0.4-1.4,0.7-2.4,0.7-2.4c0-0.1,0.1-0.3,0.1-0.4l2.2-7.9l-2.4,4.9c-0.2-0.5-0.4-0.7-0.7-0.7c-0.3,0-0.6,0.2-1.1,0.5
		c-0.6,0.4-1.6,1.3-2.1,1.7c-0.9,0.7-1.7,2-2.1,2.8c-0.2,0.5-0.6,0.9-1,1.2c-0.7,0.6-1.6,0.9-2.5,0.9c-1.2,0-2.3-0.5-3.1-1.5
		c-1.4-1.7-1.1-4.2,0.6-5.6c0.5-0.4,1.1-0.7,1.7-0.8c1-0.2,4.4-2.3,6.4-3.8c0.4-0.3,0.7-0.5,0.9-0.7l5.5-4.1l-4.8,2.6
		c0,0-0.2,0-0.4,0c-0.2,0-0.4,0-0.6,0c-1.7,0.2-3.5,0.4-3.9,0.9c-0.2,0.3-0.4,0.5-0.7,0.7c-0.6,0.5-1.3,0.7-2.1,0.7
		c-1.1,0-2.2-0.5-2.9-1.5c-1.1-1.6-0.8-3.8,0.8-4.9c0.6-0.5,1.3-0.7,2.1-0.7h0.1c0.9,0,3,0.4,5.1,0.4c0.8,0,1.6,0,2.3-0.2l0.7-0.1
		c2.8-0.5,6.2-2.9,7.5-5.4c0,0,1.3-2.3,2.9-5.1c1.6-2.8,1.5-5.9-0.3-6.9l-3.2-1.8c-0.8-0.5-1.9-0.7-2.9-0.7c-1.1,0-2.1,0.2-2.9,0.7
		L305.2,384.9z"/>
	<g>
		<path fill="#065A2E" d="M268.1,459.9c-3.6,0-5.2-2.5-5.2-5.7v-11.4c0-1.1,0.8-2,1.9-2s1.9,0.9,1.9,2v2h3.6c1,0,1.8,0.7,1.8,1.7
			s-0.8,1.7-1.8,1.7h-3.6v6c0,1.4,0.6,2.1,1.9,2.1c0.6,0,1.3-0.2,1.8-0.3c1.5-0.3,2.4,0.6,2.4,1.6c0,0.6-0.3,1.3-1.2,1.7
			C270.6,459.8,269.2,459.9,268.1,459.9z"/>
		<path fill="#065A2E" d="M285,446.2c0,0.8-0.6,1.8-1.8,1.8c-0.7,0-1.3-0.3-2.2-0.3c-1,0-1.5,0.5-1.5,1.9v8.2c0,1.1-0.8,2-1.9,2
			s-1.9-0.9-1.9-2v-8.9c0-3,1.8-5,5.1-5c1,0,1.9,0.1,2.5,0.2C284.3,444.6,285,445.3,285,446.2z"/>
		<path fill="#065A2E" d="M300.1,451.4c0,1.1-0.6,1.9-2,1.9h-7.7v0.3c0,1.8,1.4,2.8,3.3,2.8c1,0,2.1-0.3,3.1-0.6
			c1.5-0.6,2.6,0.5,2.6,1.5c0,0.5-0.2,1.2-1,1.6c-1.1,0.6-2.9,1-4.8,1c-4,0-6.7-2.5-7-6.1c-0.1-1.1-0.1-2.7,0-3.6
			c0.3-3.8,3-6.2,6.8-6.2c3.9,0,6.6,2.6,6.6,6.7v0.7L300.1,451.4L300.1,451.4z M296.1,450.7c0.2,0,0.3-0.1,0.3-0.3
			c0.1-1.8-1-3-2.9-3c-2.1,0-3.1,1.3-3.1,3.3H296.1z"/>
		<path fill="#065A2E" d="M316.5,451.4c0,1.1-0.6,1.9-2,1.9h-7.7v0.3c0,1.8,1.4,2.8,3.3,2.8c1,0,2.1-0.3,3.1-0.6
			c1.5-0.6,2.6,0.5,2.6,1.5c0,0.5-0.2,1.2-1,1.6c-1.1,0.6-2.9,1-4.8,1c-4,0-6.7-2.5-7-6.1c-0.1-1.1-0.1-2.7,0-3.6
			c0.3-3.8,3-6.2,6.8-6.2c3.9,0,6.6,2.6,6.6,6.7v0.7L316.5,451.4L316.5,451.4z M312.4,450.7c0.2,0,0.3-0.1,0.3-0.3
			c0.1-1.8-1-3-2.9-3c-2.1,0-3.1,1.3-3.1,3.3H312.4z"/>
		<path fill="#065A2E" d="M323.7,445.1c0.6-0.6,2.1-1.1,3.7-1.1c3.7,0,5.8,2.2,5.8,6.3v7.4c0,1.2-0.8,2.1-2,2.1
			c-1.1,0-1.9-0.9-1.9-2.1v-7.2c0-1.8-1-2.8-2.6-2.8c-1.2,0-2.4,0.5-3,1.2v8.8c0,1.1-0.8,2-1.9,2s-2-0.9-2-2v-16.8
			c0-1.1,0.8-2,1.9-2s1.9,0.9,1.9,2v4.2L323.7,445.1L323.7,445.1z"/>
		<path fill="#065A2E" d="M343.6,459.9c-3.8,0-6.7-2.4-7-5.9c-0.1-1.2-0.1-3,0-4.1c0.3-3.5,3.2-5.9,7-5.9c3.8,0,6.6,2.4,6.9,5.9
			c0.1,1.2,0.1,3,0,4.1C350.2,457.5,347.4,459.9,343.6,459.9z M346.7,450.5c-0.1-1.7-1.2-2.8-3.1-2.8c-1.8,0-3,1.2-3.1,2.8
			c-0.1,0.8-0.1,2.1,0,2.9c0.1,1.6,1.3,2.8,3.1,2.8c1.8,0,3-1.2,3.1-2.8C346.7,452.7,346.7,451.3,346.7,450.5z"/>
		<path fill="#065A2E" d="M354,446.1c0-1.2,0.7-2.1,1.9-2.1c1.1,0,2,0.9,2,2.1v7.4c0,1.7,1.1,2.7,2.8,2.7c1.3,0,2.2-0.4,2.8-0.8V446
			c0-1.1,0.8-2,1.9-2s1.9,0.9,1.9,2v10.9c0,0.7-0.2,1-0.7,1.4c-0.9,0.6-3,1.7-6.1,1.7c-4.2,0-6.6-2.3-6.6-6.3v-7.6L354,446.1
			L354,446.1z"/>
		<path fill="#065A2E" d="M382.7,454.9c0,3.2-2.7,5-6.1,5c-2.7,0-4.5-0.8-5.5-1.7c-0.7-0.6-0.9-1.7-0.3-2.4c0.6-0.8,1.6-1,2.5-0.3
			c0.9,0.6,2.1,1,3.4,1c1.5,0,2.2-0.6,2.2-1.3c0-0.6-0.5-1.1-1.7-1.4c-1-0.2-1-0.2-2.1-0.5c-2.4-0.6-4.2-1.9-4.2-4.4
			c0-3.1,2.5-4.8,5.9-4.8c1.8,0,3.7,0.5,4.7,1.3c0.8,0.7,0.8,1.9,0.2,2.6c-0.6,0.6-1.6,0.7-2.5,0.2c-0.8-0.4-1.8-0.6-2.5-0.6
			c-1.4,0-2.1,0.5-2.1,1.2c0,0.6,0.4,1,1.7,1.3l2.1,0.5C381.2,451.2,382.7,452.6,382.7,454.9z"/>
		<path fill="#065A2E" d="M398.8,451.4c0,1.1-0.6,1.9-2,1.9h-7.7v0.3c0,1.8,1.4,2.8,3.3,2.8c1,0,2.1-0.3,3.1-0.6
			c1.5-0.6,2.6,0.5,2.6,1.5c0,0.5-0.2,1.2-1,1.6c-1.1,0.6-2.9,1-4.8,1c-4,0-6.7-2.5-7-6.1c-0.1-1.1-0.1-2.7,0-3.6
			c0.3-3.8,3-6.2,6.8-6.2c3.9,0,6.6,2.6,6.6,6.7v0.7L398.8,451.4L398.8,451.4z M394.8,450.7c0.2,0,0.3-0.1,0.3-0.3
			c0.1-1.8-1-3-2.9-3c-2.1,0-3.1,1.3-3.1,3.3H394.8z"/>
	</g>
</g>
</svg>
